<svg width="32" height="32" viewBox="0 0 32 32" fill="none" xmlns="http://www.w3.org/2000/svg">
<g clip-path="url(#clip0_173_6190)">
<path d="M23 10V8C23 7.4478 22.5522 7 22 7H19V9H21V10.9688C21 10.9688 23 12.0926 23 14.4488V23.0001H19V25.0001H24C24.5522 25.0001 25 24.5523 25 24.0001V14.4487C25 12.7358 24.2771 11.1411 23 10Z" fill="black"/>
<path d="M15 10V8C15 7.4478 14.5522 7 14 7H10C9.4478 7 9 7.4478 9 8V10C7.7229 11.1411 7 12.7358 7 14.4487V24C7 24.5522 7.4478 25 8 25H16C16.5522 25 17 24.5522 17 24V14.4487C17 12.7358 16.2771 11.1411 15 10ZM15 23H9V14.4487C9 12.0927 11 10.9687 11 10.9687V8.9999H13V10.9687C13 10.9687 15 12.0927 15 14.4487V23Z" fill="black"/>
<path d="M28 2H4C2.8954 2 2 2.8954 2 4V28C2 29.1046 2.8954 30 4 30H28C29.1046 30 30 29.1046 30 28V4C30 2.8954 29.1046 2 28 2ZM28 28H4V4H28V28Z" fill="black"/>
</g>
<defs>
<clipPath id="clip0_173_6190">
<rect width="32" height="32" fill="white"/>
</clipPath>
</defs>
</svg>
