<svg width="32" height="32" viewBox="0 0 32 32" fill="none" xmlns="http://www.w3.org/2000/svg">
<g clip-path="url(#clip0_226_14648)">
<path d="M26 30H24V25C23.9967 22.2399 21.7601 20.0033 19 20H13C10.2399 20.0033 8.0033 22.2399 8 25V30H6V25C6.0045 21.1359 9.1359 18.0045 13 18H19C22.8641 18.0045 25.9955 21.1359 26 25V30Z" fill="black"/>
<path d="M22 6V10C22 11.1025 21.1028 12 20 12H19C18.4478 12 18 12.4478 18 13C18 13.5522 18.4478 14 19 14H20C22.2056 14 24 12.2056 24 10V6H22Z" fill="black"/>
<path d="M16 16C12.1401 16 9 12.8599 9 9C9 5.1401 12.1401 2 16 2C17.9885 2 19.8901 2.8503 21.2173 4.3329L19.7271 5.6669C18.7789 4.6076 17.4205 4 16 4C13.2429 4 11 6.243 11 9C11 11.757 13.2429 14 16 14V16Z" fill="black"/>
</g>
<defs>
<clipPath id="clip0_226_14648">
<rect width="32" height="32" fill="white"/>
</clipPath>
</defs>
</svg>
