<svg width="32" height="32" viewBox="0 0 32 32" fill="none" xmlns="http://www.w3.org/2000/svg">
<g clip-path="url(#clip0_241_18677)">
<path d="M29 26H12C11.7348 26 11.4805 25.8947 11.293 25.7072L2.29295 16.7072C1.90235 16.3166 1.90235 15.6835 2.29295 15.2929L11.293 6.2928C11.4805 6.1053 11.7348 6 12 6H29C29.5522 6 30 6.4478 30 7V25C30 25.5522 29.5522 26 29 26ZM12.4143 24H28V8H12.4143L4.41425 16L12.4143 24Z" fill="black"/>
<path d="M20.4141 16L25 11.4141L23.5859 10L19 14.5859L14.4143 10L13 11.4141L17.5859 16L13 20.5859L14.4143 22L19 17.4141L23.5859 22L25 20.5859L20.4141 16Z" fill="black"/>
</g>
<defs>
<clipPath id="clip0_241_18677">
<rect width="32" height="32" fill="white"/>
</clipPath>
</defs>
</svg>
