<svg width="61" height="60" viewBox="0 0 61 60" fill="none" xmlns="http://www.w3.org/2000/svg">
<g clip-path="url(#clip0_1057_1424)">
<path d="M30.5 5.625C25.6791 5.625 20.9664 7.05457 16.958 9.73293C12.9495 12.4113 9.82533 16.2181 7.98045 20.6721C6.13556 25.126 5.65286 30.027 6.59337 34.7553C7.53388 39.4836 9.85538 43.8268 13.2643 47.2357C16.6732 50.6446 21.0164 52.9661 25.7447 53.9066C30.473 54.8472 35.374 54.3644 39.8279 52.5196C44.2819 50.6747 48.0887 47.5505 50.7671 43.542C53.4454 39.5336 54.875 34.8209 54.875 30C54.8682 23.5374 52.2979 17.3415 47.7282 12.7718C43.1585 8.20209 36.9626 5.63182 30.5 5.625ZM30.5 50.625C26.4208 50.625 22.4331 49.4154 19.0414 47.1491C15.6496 44.8828 13.0061 41.6616 11.445 37.8928C9.88394 34.1241 9.47549 29.9771 10.2713 25.9763C11.0671 21.9754 13.0315 18.3004 15.9159 15.4159C18.8004 12.5315 22.4754 10.5671 26.4763 9.7713C30.4771 8.97548 34.6241 9.38393 38.3929 10.945C42.1616 12.506 45.3828 15.1496 47.6491 18.5414C49.9154 21.9331 51.125 25.9208 51.125 30C51.1188 35.4682 48.9438 40.7106 45.0772 44.5772C41.2106 48.4438 35.9682 50.6188 30.5 50.625ZM39.875 34.6875C39.875 36.428 39.1836 38.0972 37.9529 39.3279C36.7222 40.5586 35.053 41.25 33.3125 41.25H32.375V43.125C32.375 43.6223 32.1775 44.0992 31.8258 44.4508C31.4742 44.8025 30.9973 45 30.5 45C30.0027 45 29.5258 44.8025 29.1742 44.4508C28.8226 44.0992 28.625 43.6223 28.625 43.125V41.25H24.875C24.3777 41.25 23.9008 41.0525 23.5492 40.7008C23.1976 40.3492 23 39.8723 23 39.375C23 38.8777 23.1976 38.4008 23.5492 38.0492C23.9008 37.6975 24.3777 37.5 24.875 37.5H33.3125C34.0584 37.5 34.7738 37.2037 35.3012 36.6762C35.8287 36.1488 36.125 35.4334 36.125 34.6875C36.125 33.9416 35.8287 33.2262 35.3012 32.6988C34.7738 32.1713 34.0584 31.875 33.3125 31.875H27.6875C25.947 31.875 24.2778 31.1836 23.0471 29.9529C21.8164 28.7222 21.125 27.053 21.125 25.3125C21.125 23.572 21.8164 21.9028 23.0471 20.6721C24.2778 19.4414 25.947 18.75 27.6875 18.75H28.625V16.875C28.625 16.3777 28.8226 15.9008 29.1742 15.5492C29.5258 15.1975 30.0027 15 30.5 15C30.9973 15 31.4742 15.1975 31.8258 15.5492C32.1775 15.9008 32.375 16.3777 32.375 16.875V18.75H36.125C36.6223 18.75 37.0992 18.9475 37.4508 19.2992C37.8025 19.6508 38 20.1277 38 20.625C38 21.1223 37.8025 21.5992 37.4508 21.9508C37.0992 22.3025 36.6223 22.5 36.125 22.5H27.6875C26.9416 22.5 26.2262 22.7963 25.6988 23.3238C25.1713 23.8512 24.875 24.5666 24.875 25.3125C24.875 26.0584 25.1713 26.7738 25.6988 27.3012C26.2262 27.8287 26.9416 28.125 27.6875 28.125H33.3125C35.053 28.125 36.7222 28.8164 37.9529 30.0471C39.1836 31.2778 39.875 32.947 39.875 34.6875Z" fill="black"/>
</g>
<defs>
<clipPath id="clip0_1057_1424">
<rect width="60" height="60" fill="white" transform="translate(0.5)"/>
</clipPath>
</defs>
</svg>
