<svg width="32" height="32" viewBox="0 0 32 32" fill="none" xmlns="http://www.w3.org/2000/svg">
<g clip-path="url(#clip0_1_3161)">
<path d="M2 17H17.1719L13.5859 20.5859L15 22L21 16L15 10L13.5859 11.4141L17.1719 15H2V17Z" fill="black"/>
<path d="M28.5039 8.1362L16.5039 1.1362C16.3481 1.0454 16.1741 1 16 1C15.8259 1 15.6519 1.0454 15.4961 1.1362L3.4961 8.1362C3.189 8.3154 3 8.6445 3 9V12H5V9.5742L16 3.1577L27 9.5742V22.4258L16 28.8423L4.2725 22L3.2647 23.7275L15.4961 30.8637C15.6519 30.9545 15.8259 30.9999 16 30.9999C16.1741 30.9999 16.3481 30.9545 16.5039 30.8637L28.5039 23.8637C28.811 23.6845 29 23.3554 29 22.9999V8.9999C29 8.6444 28.811 8.3154 28.5039 8.1362Z" fill="black"/>
</g>
<defs>
<clipPath id="clip0_1_3161">
<rect width="32" height="32" fill="white"/>
</clipPath>
</defs>
</svg>
