<svg width="32" height="32" viewBox="0 0 32 32" fill="none" xmlns="http://www.w3.org/2000/svg">
<g clip-path="url(#clip0_173_6191)">
<path d="M11.4141 15L3.4141 7L2 8.4141L8.5859 15H2V16C2 19.713 3.475 23.274 6.1005 25.8995C8.72601 28.525 12.287 30 16 30C19.713 30 23.274 28.525 25.8995 25.8995C28.525 23.274 30 19.713 30 16V15H11.4141ZM16 28C12.9916 27.9962 10.094 26.8642 7.87983 24.8275C5.66567 22.7908 4.29601 19.9976 4.0415 17H27.9585C27.704 19.9976 26.3343 22.7908 24.1202 24.8275C21.906 26.8642 19.0084 27.9962 16 28Z" fill="black"/>
<path d="M22 8C21.4661 8.00081 20.9358 8.08703 20.4292 8.2554C19.6856 7.24908 18.7169 6.43061 17.6006 5.86537C16.4843 5.30012 15.2513 5.00378 14 5C12.2226 4.99482 10.4949 5.58642 9.0938 6.68L4.4141 2L3 3.4141L9.05 9.4648L9.757 8.7573C10.3129 8.19834 10.9741 7.7552 11.7024 7.45356C12.4308 7.15191 13.2117 6.99775 14 7C14.901 7.00258 15.7899 7.20736 16.6011 7.59923C17.4124 7.9911 18.1254 8.56008 18.6875 9.2642C18.4741 9.45065 18.2767 9.6547 18.0975 9.8742C17.8169 10.2262 17.4605 10.5102 17.0547 10.7051C16.649 10.9001 16.2045 11.0009 15.7544 11H12V13H15.7544C16.5042 13.0015 17.2446 12.8338 17.9204 12.5092C18.5963 12.1846 19.1902 11.7116 19.6577 11.1255C20.0461 10.6402 20.5757 10.2875 21.1732 10.1162C21.7707 9.94484 22.4067 9.96336 22.9933 10.1692C23.5798 10.375 24.088 10.7579 24.4474 11.265C24.8069 11.7721 25 12.3784 25 13H27C26.9984 11.6744 26.4712 10.4035 25.5338 9.46619C24.5965 8.52885 23.3256 8.00156 22 8Z" fill="black"/>
</g>
<defs>
<clipPath id="clip0_173_6191">
<rect width="32" height="32" fill="white"/>
</clipPath>
</defs>
</svg>
