<svg width="32" height="32" viewBox="0 0 32 32" fill="none" xmlns="http://www.w3.org/2000/svg">
<g clip-path="url(#clip0_184_7370)">
<path d="M28 9H25V3H7V9H4C3.46957 9 2.96086 9.21071 2.58579 9.58579C2.21071 9.96086 2 10.4696 2 11V21C2 21.5304 2.21071 22.0391 2.58579 22.4142C2.96086 22.7893 3.46957 23 4 23H7V29H25V23H28C28.5304 23 29.0391 22.7893 29.4142 22.4142C29.7893 22.0391 30 21.5304 30 21V11C30 10.4696 29.7893 9.96086 29.4142 9.58579C29.0391 9.21071 28.5304 9 28 9ZM9 5H23V9H9V5ZM23 27H9V17H23V27ZM28 21H25V15H7V21H4V11H28V21Z" fill="black"/>
</g>
<defs>
<clipPath id="clip0_184_7370">
<rect width="32" height="32" fill="white"/>
</clipPath>
</defs>
</svg>
