<svg width="61" height="60" viewBox="0 0 61 60" fill="none" xmlns="http://www.w3.org/2000/svg">
<g clip-path="url(#clip0_1057_1432)">
<path d="M21.3078 23.2153L34.9933 23.2153L34.9933 31.4261L29.252 31.4261L34.9934 36.6807L30.116 36.6807L24.4855 31.4261L24.4855 36.6807L21.3079 36.6807L21.3078 28.3337L31.342 28.3337L31.342 26.3357L21.3078 26.3357L21.3078 23.2153Z" fill="black"/>
<path d="M36.4146 36.6807L39.7592 36.6807L39.7592 23.188L36.4145 23.188L36.4146 36.6807Z" fill="black"/>
<path d="M9.63003 33.4239L9.63001 23.2153L7.01002 23.2153C6.53621 23.2153 6.17382 23.5714 6.17382 24.0087C6.17383 26.418 6.14599 33.506 6.14599 35.8596C6.146 36.2976 6.50839 36.6807 6.95434 36.6807C8.76599 36.6807 13.9779 36.6807 14.7302 36.6807L14.7302 33.4239L9.63003 33.4239Z" fill="black"/>
<path d="M16.458 40.0469C16.765 40.0469 19.1061 40.0469 19.8867 40.0469C19.8867 40.0469 19.8867 33.3963 19.8867 33.2869C18.7716 33.2869 17.6016 33.2869 16.458 33.2869C16.458 35.5311 16.458 37.7752 16.458 40.0469Z" fill="black"/>
<path d="M11.302 23.2151C11.302 23.2703 11.302 26.5813 11.302 26.5813C12.835 26.5813 14.7857 26.5813 16.4579 26.5813C16.4579 28.9083 16.4579 31.6174 16.4579 31.6174C17.2386 31.6174 19.5797 31.6174 19.8867 31.6174L19.8867 24.0366C19.8867 23.5983 19.5238 23.2422 19.0785 23.2151C17.4063 23.2151 13.448 23.2151 11.302 23.2151Z" fill="black"/>
<path d="M11.302 28.2235C11.302 29.3458 11.302 30.4682 11.302 31.6448C11.5807 31.6448 11.8873 31.6448 12.1661 31.6448C12.9468 31.6448 13.9217 31.6448 14.7024 31.6448C14.7024 31.6448 14.7024 28.2786 14.7024 28.2235C13.5873 28.2235 12.4448 28.2235 11.302 28.2235ZM13.6991 30.6046C13.3646 30.6046 12.9743 30.6046 12.6673 30.6046C12.5563 30.6046 12.4448 30.6046 12.3054 30.6046C12.3054 30.1392 12.3054 29.7019 12.3054 29.2365C12.7791 29.2365 13.2254 29.2365 13.6991 29.2365C13.6991 29.2636 13.6991 30.6046 13.6991 30.6046Z" fill="black"/>
<path d="M56.1761 33.2871L56.1761 38.3229C56.1761 38.7607 55.7858 39.1166 55.3405 39.1166L50.2122 39.1166L50.2122 39.9376L56.1761 39.9376L56.2046 39.9376C56.6224 39.9376 56.9843 39.5818 56.9843 39.1439L56.9843 39.1166L56.9843 33.2871L56.1761 33.2871Z" fill="black"/>
<path d="M4.75221 26.5545L4.7522 21.5183C4.7522 21.081 5.08664 20.752 5.53259 20.752L10.6611 20.752C10.6889 20.752 10.6889 20.7249 10.6889 20.7249L10.6889 19.9586C10.6889 19.9586 10.6889 19.9315 10.6611 19.9315L4.7522 19.9315C4.27839 19.9315 3.916 20.2876 3.916 20.752L3.91602 26.5545C3.91602 26.5816 3.94387 26.5816 3.94387 26.5816L4.72436 26.5816C4.72436 26.5816 4.75221 26.5816 4.75221 26.5545Z" fill="black"/>
<path d="M54.726 26.5544L54.726 23.2153L41.2082 23.2153L41.2082 28.2235L41.2082 31.5906L50.2116 31.5906L50.2116 33.2597L41.2082 33.2597L41.2083 36.626L54.726 36.626L54.726 28.2515L45.7236 28.2515L45.7236 26.5544L54.726 26.5544Z" fill="black"/>
</g>
<defs>
<clipPath id="clip0_1057_1432">
<rect width="60" height="60" fill="white" transform="translate(0.5)"/>
</clipPath>
</defs>
</svg>
