<svg width="32" height="32" viewBox="0 0 32 32" fill="none" xmlns="http://www.w3.org/2000/svg">
<g clip-path="url(#clip0_1_3167)">
<path d="M11 2H9V12H11V2Z" fill="black"/>
<path d="M14 11C14 12.0609 13.5786 13.0783 12.8284 13.8284C12.0783 14.5786 11.0609 15 10 15C8.93913 15 7.92172 14.5786 7.17157 13.8284C6.42143 13.0783 6 12.0609 6 11V2H4V11C4.00144 12.4169 4.50425 13.7875 5.41939 14.8692C6.33452 15.9509 7.60294 16.6739 9 16.91V30H11V16.91C12.3971 16.6739 13.6655 15.9509 14.5806 14.8692C15.4958 13.7875 15.9986 12.4169 16 11V2H14V11Z" fill="black"/>
<path d="M22 2.00002H21V30H23V20H26C26.5304 20 27.0391 19.7893 27.4142 19.4142C27.7893 19.0392 28 18.5305 28 18V8.00002C28.0309 7.2038 27.8969 6.40978 27.6063 5.66783C27.3157 4.92588 26.8749 4.25203 26.3114 3.68859C25.748 3.12515 25.0741 2.6843 24.3322 2.39371C23.5902 2.10313 22.7962 1.96909 22 2.00002ZM26 18H23V4.09002C25.88 4.65002 26 7.63002 26 8.00002V18Z" fill="black"/>
</g>
<defs>
<clipPath id="clip0_1_3167">
<rect width="32" height="32" fill="white"/>
</clipPath>
</defs>
</svg>
