<svg width="32" height="32" viewBox="0 0 32 32" fill="none" xmlns="http://www.w3.org/2000/svg">
<g clip-path="url(#clip0_129_7776)">
<path d="M26.9998 16.76C26.9998 16.51 26.9998 16.26 26.9998 16C26.9998 15.74 26.9998 15.49 26.9998 15.23L28.9198 13.55C29.2737 13.2381 29.5059 12.811 29.5755 12.3444C29.645 11.8778 29.5474 11.4016 29.2998 11L26.9398 7.00001C26.7644 6.69627 26.5122 6.44399 26.2086 6.26847C25.905 6.09295 25.5605 6.00037 25.2098 6.00001C24.9924 5.99834 24.7762 6.03212 24.5698 6.10001L22.1398 6.92001C21.7202 6.64122 21.2826 6.39066 20.8298 6.17001L20.3198 3.65001C20.2283 3.18961 19.9779 2.77605 19.6122 2.48171C19.2466 2.18737 18.7891 2.03102 18.3198 2.04001H13.6398C13.1705 2.03102 12.7129 2.18737 12.3473 2.48171C11.9817 2.77605 11.7312 3.18961 11.6398 3.65001L11.1298 6.17001C10.6737 6.39061 10.2327 6.64116 9.80976 6.92001L7.42976 6.06001C7.22106 6.00563 7.00494 5.98537 6.78976 6.00001C6.43904 6.00037 6.09457 6.09295 5.79093 6.26847C5.48728 6.44399 5.23513 6.69627 5.05976 7.00001L2.69976 11C2.46635 11.401 2.37962 11.8707 2.45441 12.3286C2.52921 12.7865 2.76089 13.2041 3.10976 13.51L4.99976 15.24C4.99976 15.49 4.99976 15.74 4.99976 16C4.99976 16.26 4.99976 16.51 4.99976 16.77L3.10976 18.45C2.75103 18.758 2.51302 19.1831 2.43796 19.65C2.36291 20.1168 2.45566 20.5951 2.69976 21L5.05976 25C5.23513 25.3037 5.48728 25.556 5.79093 25.7315C6.09457 25.9071 6.43904 25.9996 6.78976 26C7.00711 26.0017 7.22328 25.9679 7.42976 25.9L9.85976 25.08C10.2793 25.3588 10.7169 25.6094 11.1698 25.83L11.6798 28.35C11.7712 28.8104 12.0217 29.224 12.3873 29.5183C12.7529 29.8126 13.2105 29.969 13.6798 29.96H18.3998C18.8691 29.969 19.3266 29.8126 19.6922 29.5183C20.0579 29.224 20.3083 28.8104 20.3998 28.35L20.9098 25.83C21.3658 25.6094 21.8068 25.3589 22.2298 25.08L24.6498 25.9C24.8562 25.9679 25.0724 26.0017 25.2898 26C25.6405 25.9996 25.985 25.9071 26.2886 25.7315C26.5922 25.556 26.8444 25.3037 27.0198 25L29.2998 21C29.5332 20.599 29.6199 20.1294 29.5451 19.6714C29.4703 19.2135 29.2386 18.7959 28.8898 18.49L26.9998 16.76ZM25.2098 24L21.7798 22.84C20.9768 23.5201 20.0592 24.0518 19.0698 24.41L18.3598 28H13.6398L12.9298 24.45C11.9482 24.0816 11.0355 23.5509 10.2298 22.88L6.78976 24L4.42976 20L7.14976 17.6C6.96486 16.5649 6.96486 15.5052 7.14976 14.47L4.42976 12L6.78976 8.00001L10.2198 9.16001C11.0227 8.4799 11.9404 7.94826 12.9298 7.59001L13.6398 4.00001H18.3598L19.0698 7.55001C20.0513 7.91843 20.964 8.44915 21.7698 9.12001L25.2098 8.00001L27.5698 12L24.8498 14.4C25.0347 15.4352 25.0347 16.4949 24.8498 17.53L27.5698 20L25.2098 24Z" fill="black"/>
<path d="M16 22C14.8133 22 13.6533 21.6481 12.6666 20.9888C11.6799 20.3295 10.9109 19.3925 10.4567 18.2961C10.0026 17.1997 9.88378 15.9933 10.1153 14.8295C10.3468 13.6656 10.9182 12.5965 11.7574 11.7574C12.5965 10.9182 13.6656 10.3468 14.8295 10.1153C15.9933 9.88378 17.1997 10.0026 18.2961 10.4567C19.3925 10.9109 20.3295 11.6799 20.9888 12.6666C21.6481 13.6533 22 14.8133 22 16C22.008 16.7902 21.8583 17.574 21.5596 18.3056C21.2609 19.0371 20.8193 19.7018 20.2605 20.2605C19.7018 20.8193 19.0371 21.2609 18.3056 21.5596C17.574 21.8583 16.7902 22.008 16 22ZM16 12C15.4713 11.9877 14.9457 12.0827 14.4548 12.2794C13.9639 12.4761 13.5181 12.7702 13.1442 13.1442C12.7702 13.5181 12.4761 13.9639 12.2794 14.4548C12.0827 14.9457 11.9877 15.4713 12 16C11.9877 16.5287 12.0827 17.0543 12.2794 17.5452C12.4761 18.0361 12.7702 18.4819 13.1442 18.8559C13.5181 19.2298 13.9639 19.524 14.4548 19.7206C14.9457 19.9173 15.4713 20.0123 16 20C16.5287 20.0123 17.0543 19.9173 17.5452 19.7206C18.0361 19.524 18.4819 19.2298 18.8559 18.8559C19.2298 18.4819 19.524 18.0361 19.7206 17.5452C19.9173 17.0543 20.0123 16.5287 20 16C20.0123 15.4713 19.9173 14.9457 19.7206 14.4548C19.524 13.9639 19.2298 13.5181 18.8559 13.1442C18.4819 12.7702 18.0361 12.4761 17.5452 12.2794C17.0543 12.0827 16.5287 11.9877 16 12Z" fill="black"/>
</g>
<defs>
<clipPath id="clip0_129_7776">
<rect width="32" height="32" fill="white"/>
</clipPath>
</defs>
</svg>
