<svg width="32" height="32" viewBox="0 0 32 32" fill="none" xmlns="http://www.w3.org/2000/svg">
<g clip-path="url(#clip0_260_15149)">
<path d="M21 24H17V28H21V24Z" fill="black"/>
<path d="M28 24H24V28H28V24Z" fill="black"/>
<path d="M21 17H17V21H21V17Z" fill="black"/>
<path d="M28 17H24V21H28V17Z" fill="black"/>
<path d="M28 11H22V7C22 5.3 20.7 4 19 4H13C11.3 4 10 5.3 10 7V11H4C3.4 11 3 11.4 3 12C3 12.1 3 12.1 3 12.2L4.9 24.3C5 25.3 5.9 26 6.9 26H15V24H6.9L5.2 13H28V11ZM12 7C12 6.4 12.4 6 13 6H19C19.6 6 20 6.4 20 7V11H12V7Z" fill="black"/>
</g>
<defs>
<clipPath id="clip0_260_15149">
<rect width="32" height="32" fill="white"/>
</clipPath>
</defs>
</svg>
