<svg width="32" height="32" viewBox="0 0 32 32" fill="none" xmlns="http://www.w3.org/2000/svg">
<g clip-path="url(#clip0_184_8628)">
<path d="M28.7601 11.35C28.6662 11.2402 28.5497 11.1521 28.4185 11.0917C28.2873 11.0313 28.1445 11 28.0001 11H22.0001V7C22.0001 6.20435 21.684 5.44129 21.1214 4.87868C20.5588 4.31607 19.7957 4 19.0001 4H13.0001C12.2044 4 11.4414 4.31607 10.8788 4.87868C10.3162 5.44129 10.0001 6.20435 10.0001 7V11H4.00009C3.85514 10.9984 3.71156 11.0283 3.57931 11.0876C3.44705 11.147 3.32929 11.2344 3.23416 11.3438C3.13904 11.4531 3.06884 11.5819 3.02842 11.7211C2.98801 11.8603 2.97834 12.0067 3.00009 12.15L4.88009 24.3C4.95242 24.7769 5.19466 25.2116 5.56219 25.524C5.92972 25.8364 6.39777 26.0055 6.88009 26H25.1401C25.6224 26.0055 26.0905 25.8364 26.458 25.524C26.8255 25.2116 27.0678 24.7769 27.1401 24.3L29.0001 12.15C29.0201 12.0072 29.009 11.8618 28.9676 11.7237C28.9262 11.5857 28.8554 11.4582 28.7601 11.35ZM12.0001 7C12.0001 6.73478 12.1055 6.48043 12.293 6.29289C12.4805 6.10536 12.7349 6 13.0001 6H19.0001C19.2653 6 19.5197 6.10536 19.7072 6.29289C19.8947 6.48043 20.0001 6.73478 20.0001 7V11H12.0001V7ZM25.1401 24H6.86009L5.17009 13H26.8301L25.1401 24Z" fill="black"/>
</g>
<defs>
<clipPath id="clip0_184_8628">
<rect width="32" height="32" fill="white"/>
</clipPath>
</defs>
</svg>
