<svg width="32" height="32" viewBox="0 0 32 32" fill="none" xmlns="http://www.w3.org/2000/svg">
<g clip-path="url(#clip0_241_18678)">
<path d="M17 4H15V28H17V4Z" fill="black"/>
<path d="M10 7V25H4V7H10ZM10 5H4C3.46957 5 2.96086 5.21071 2.58579 5.58579C2.21071 5.96086 2 6.46957 2 7V25C2 25.5304 2.21071 26.0391 2.58579 26.4142C2.96086 26.7893 3.46957 27 4 27H10C10.5304 27 11.0391 26.7893 11.4142 26.4142C11.7893 26.0391 12 25.5304 12 25V7C12 6.46957 11.7893 5.96086 11.4142 5.58579C11.0391 5.21071 10.5304 5 10 5Z" fill="black"/>
<path d="M28 7V25H22V7H28ZM28 5H22C21.4696 5 20.9609 5.21071 20.5858 5.58579C20.2107 5.96086 20 6.46957 20 7V25C20 25.5304 20.2107 26.0391 20.5858 26.4142C20.9609 26.7893 21.4696 27 22 27H28C28.5304 27 29.0391 26.7893 29.4142 26.4142C29.7893 26.0391 30 25.5304 30 25V7C30 6.46957 29.7893 5.96086 29.4142 5.58579C29.0391 5.21071 28.5304 5 28 5Z" fill="black"/>
</g>
<defs>
<clipPath id="clip0_241_18678">
<rect width="32" height="32" fill="white"/>
</clipPath>
</defs>
</svg>
