<svg width="32" height="32" viewBox="0 0 32 32" fill="none" xmlns="http://www.w3.org/2000/svg">
<g clip-path="url(#clip0_69_12574)">
<path d="M16 30H14V25C13.9991 24.2046 13.6828 23.4421 13.1204 22.8796C12.5579 22.3172 11.7954 22.0009 11 22H7C6.20462 22.0009 5.44206 22.3172 4.87964 22.8796C4.31722 23.4421 4.00087 24.2046 4 25V30H2V25C2.00156 23.6744 2.52885 22.4035 3.46619 21.4662C4.40353 20.5288 5.6744 20.0016 7 20H11C12.3256 20.0016 13.5965 20.5288 14.5338 21.4662C15.4712 22.4035 15.9984 23.6744 16 25V30Z" fill="black"/>
<path d="M9 10C9.59335 10 10.1734 10.1759 10.6667 10.5056C11.1601 10.8352 11.5446 11.3038 11.7716 11.8519C11.9987 12.4001 12.0581 13.0033 11.9424 13.5853C11.8266 14.1672 11.5409 14.7018 11.1213 15.1213C10.7018 15.5409 10.1672 15.8266 9.58527 15.9424C9.00333 16.0581 8.40013 15.9987 7.85195 15.7716C7.30377 15.5446 6.83524 15.1601 6.50559 14.6667C6.17595 14.1734 6 13.5933 6 13C6 12.2044 6.31607 11.4413 6.87868 10.8787C7.44129 10.3161 8.20435 10 9 10ZM9 8C8.0111 8 7.0444 8.29325 6.22215 8.84265C5.39991 9.39206 4.75904 10.173 4.3806 11.0866C4.00217 12.0002 3.90315 13.0055 4.09608 13.9755C4.289 14.9454 4.76521 15.8363 5.46447 16.5355C6.16373 17.2348 7.05465 17.711 8.02455 17.9039C8.99446 18.0969 9.99979 17.9978 10.9134 17.6194C11.827 17.241 12.6079 16.6001 13.1573 15.7779C13.7068 14.9556 14 13.9889 14 13C14 12.3434 13.8707 11.6932 13.6194 11.0866C13.3681 10.48 12.9998 9.92876 12.5355 9.46447C12.0712 9.00017 11.52 8.63188 10.9134 8.3806C10.3068 8.12933 9.65661 8 9 8Z" fill="black"/>
<path d="M30.0002 12C29.8271 12.0024 29.6551 12.0273 29.4885 12.0742L28.4333 11.019C28.804 10.4108 29.0001 9.71228 29.0001 9C29.0001 8.28771 28.804 7.58918 28.4333 6.981L29.4885 5.9258C29.9214 6.04629 30.3821 6.02 30.7985 5.85103C31.2149 5.68205 31.5637 5.37991 31.7903 4.9918C32.0168 4.60368 32.1085 4.15146 32.0509 3.70575C31.9933 3.26005 31.7897 2.84596 31.472 2.52818C31.1542 2.2104 30.7401 2.00682 30.2944 1.94923C29.8487 1.89165 29.3965 1.9833 29.0084 2.20988C28.6202 2.43646 28.3181 2.7852 28.1491 3.20164C27.9801 3.61807 27.9539 4.07874 28.0744 4.5117L27.0191 5.5669C26.411 5.19614 25.7124 5 25.0002 5C24.2879 5 23.5893 5.19614 22.9812 5.5669L21.926 4.5117C22.0464 4.07874 22.0202 3.61807 21.8512 3.20164C21.6822 2.7852 21.3801 2.43646 20.992 2.20988C20.6038 1.9833 20.1516 1.89165 19.7059 1.94923C19.2602 2.00682 18.8461 2.2104 18.5283 2.52818C18.2106 2.84596 18.007 3.26005 17.9494 3.70575C17.8918 4.15146 17.9835 4.60368 18.21 4.9918C18.4366 5.37991 18.7854 5.68205 19.2018 5.85103C19.6182 6.02 20.0789 6.04629 20.5119 5.9258L21.5671 6.981C21.1963 7.58918 21.0002 8.28771 21.0002 9C21.0002 9.71228 21.1963 10.4108 21.5671 11.019L20.5119 12.0742C20.0789 11.9537 19.6182 11.98 19.2018 12.149C18.7854 12.3179 18.4366 12.6201 18.21 13.0082C17.9835 13.3963 17.8918 13.8485 17.9494 14.2942C18.007 14.7399 18.2106 15.154 18.5283 15.4718C18.8461 15.7896 19.2602 15.9932 19.7059 16.0508C20.1516 16.1083 20.6038 16.0167 20.992 15.7901C21.3801 15.5635 21.6822 15.2148 21.8512 14.7984C22.0202 14.3819 22.0464 13.9213 21.926 13.4883L22.9812 12.4331C23.5893 12.8039 24.2879 13 25.0002 13C25.7124 13 26.411 12.8039 27.0191 12.4331L28.0744 13.4883C27.9684 13.8914 27.9913 14.3175 28.1398 14.7069C28.2883 15.0963 28.555 15.4295 28.9025 15.6596C29.25 15.8897 29.6608 16.0053 30.0773 15.9901C30.4938 15.9749 30.8951 15.8296 31.2248 15.5748C31.5546 15.3199 31.7963 14.9682 31.916 14.569C32.0358 14.1698 32.0275 13.7432 31.8925 13.3489C31.7574 12.9546 31.5023 12.6125 31.1629 12.3706C30.8235 12.1287 30.4169 11.9991 30.0002 12ZM23.0002 9C23.0002 8.60443 23.1174 8.21776 23.3372 7.88886C23.557 7.55996 23.8693 7.30361 24.2348 7.15224C24.6002 7.00086 25.0024 6.96126 25.3903 7.03843C25.7783 7.1156 26.1347 7.30608 26.4144 7.58578C26.6941 7.86549 26.8846 8.22185 26.9617 8.60982C27.0389 8.99778 26.9993 9.39991 26.8479 9.76536C26.6965 10.1308 26.4402 10.4432 26.1113 10.6629C25.7824 10.8827 25.3957 11 25.0002 11C24.4699 10.9993 23.9616 10.7884 23.5867 10.4135C23.2117 10.0386 23.0008 9.53023 23.0002 9Z" fill="black"/>
</g>
<defs>
<clipPath id="clip0_69_12574">
<rect width="32" height="32" fill="white"/>
</clipPath>
</defs>
</svg>
