<svg width="32" height="32" viewBox="0 0 32 32" fill="none" xmlns="http://www.w3.org/2000/svg">
<g clip-path="url(#clip0_177_6680)">
<path d="M16 20C18.2091 20 20 18.2091 20 16C20 13.7909 18.2091 12 16 12C13.7909 12 12 13.7909 12 16C12 18.2091 13.7909 20 16 20Z" fill="black"/>
<path d="M30.9401 15.66C29.7639 12.6176 27.722 9.98662 25.0669 8.09209C22.4117 6.19756 19.2595 5.12257 16.0001 5C12.7406 5.12257 9.58845 6.19756 6.93326 8.09209C4.27808 9.98662 2.23622 12.6176 1.06006 15.66C0.98063 15.8797 0.98063 16.1203 1.06006 16.34C2.23622 19.3824 4.27808 22.0134 6.93326 23.9079C9.58845 25.8024 12.7406 26.8774 16.0001 27C19.2595 26.8774 22.4117 25.8024 25.0669 23.9079C27.722 22.0134 29.7639 19.3824 30.9401 16.34C31.0195 16.1203 31.0195 15.8797 30.9401 15.66ZM16.0001 22.5C14.7145 22.5 13.4578 22.1188 12.3889 21.4046C11.3199 20.6903 10.4868 19.6752 9.99485 18.4874C9.50288 17.2997 9.37416 15.9928 9.62496 14.7319C9.87576 13.471 10.4948 12.3128 11.4039 11.4038C12.3129 10.4948 13.4711 9.8757 14.732 9.6249C15.9929 9.37409 17.2998 9.50281 18.4875 9.99478C19.6752 10.4868 20.6904 11.3199 21.4046 12.3888C22.1188 13.4577 22.5001 14.7144 22.5001 16C22.4974 17.7231 21.8118 19.3749 20.5933 20.5933C19.3749 21.8117 17.7232 22.4974 16.0001 22.5Z" fill="black"/>
</g>
<defs>
<clipPath id="clip0_177_6680">
<rect width="32" height="32" fill="white"/>
</clipPath>
</defs>
</svg>
