<svg width="32" height="32" viewBox="0 0 32 32" fill="none" xmlns="http://www.w3.org/2000/svg">
<g clip-path="url(#clip0_177_6674)">
<path d="M30.94 15.66C29.7977 12.6708 27.8059 10.0811 25.21 8.21L30 3.41L28.59 2L2 28.59L3.41 30L8.51 24.91C10.7864 26.2367 13.3655 26.9564 16 27C19.2595 26.8774 22.4116 25.8024 25.0668 23.9079C27.722 22.0134 29.7638 19.3824 30.94 16.34C31.0194 16.1203 31.0194 15.8797 30.94 15.66ZM16 22.5C14.6216 22.4994 13.2795 22.0579 12.17 21.24L14 19.43C14.7588 19.8458 15.6319 20.0043 16.4885 19.8817C17.345 19.7592 18.1387 19.3623 18.7505 18.7505C19.3623 18.1387 19.7592 17.345 19.8817 16.4885C20.0043 15.6319 19.8458 14.7588 19.43 14L21.24 12.19C21.9445 13.1576 22.3677 14.3012 22.4628 15.4943C22.5579 16.6874 22.3212 17.8835 21.7789 18.9505C21.2367 20.0175 20.4099 20.9137 19.39 21.5402C18.3701 22.1666 17.1969 22.4988 16 22.5Z" fill="black"/>
<path d="M4.53006 21.81L9.53006 16.81C9.50406 16.5408 9.49404 16.2704 9.50006 16C9.50271 14.2769 10.1884 12.6251 11.4068 11.4067C12.6252 10.1883 14.277 9.50265 16.0001 9.5C16.2641 9.5014 16.5279 9.5181 16.7901 9.55L20.5701 5.78C19.0989 5.27471 17.5555 5.01129 16.0001 5C12.7406 5.12257 9.58845 6.19756 6.93326 8.09209C4.27808 9.98662 2.23622 12.6176 1.06006 15.66C0.98063 15.8797 0.98063 16.1203 1.06006 16.34C1.82809 18.3826 3.00939 20.2448 4.53006 21.81Z" fill="black"/>
</g>
<defs>
<clipPath id="clip0_177_6674">
<rect width="32" height="32" fill="white"/>
</clipPath>
</defs>
</svg>
