<svg width="32" height="32" viewBox="0 0 32 32" fill="none" xmlns="http://www.w3.org/2000/svg">
<g clip-path="url(#clip0_1_3173)">
<path d="M21 3V5.5857L17 9.5857V1H15V9.5857L11 5.5857V3H9V19C9.0028 20.6816 9.61053 22.3061 10.7122 23.5766C11.8138 24.8472 13.3357 25.6789 15 25.92V30H17V25.92C18.6643 25.6789 20.1862 24.8472 21.2878 23.5766C22.3895 22.3061 22.9972 20.6816 23 19V3H21ZM15 23.8987C13.8715 23.6668 12.8575 23.053 12.1289 22.1606C11.4003 21.2683 11.0016 20.152 11 19V16.414L15 20.414V23.8987ZM15 17.5857L11 13.5857V8.4138L15 12.4138V17.5857ZM17 12.4138L21 8.4138V13.5857L17 17.5857V12.4138ZM17 23.8987V20.4138L21 16.4138V19C20.9984 20.152 20.5997 21.2683 19.8711 22.1606C19.1425 23.053 18.1285 23.6668 17 23.8987Z" fill="black"/>
</g>
<defs>
<clipPath id="clip0_1_3173">
<rect width="32" height="32" fill="white"/>
</clipPath>
</defs>
</svg>
